<svg width="1728" height="382" viewBox="0 0 1728 382" fill="none" xmlns="http://www.w3.org/2000/svg">
<path d="M-265.056 367.41C-265.598 367.513 -266.168 367.167 -266.329 366.639C-266.489 366.11 -266.179 365.599 -265.636 365.497L-265.346 366.454L-265.056 367.41ZM-193.65 354.314L-194.096 353.4L-193.65 354.314ZM-34.3213 305.877L-34.7422 304.954L-34.3213 305.877ZM228.815 255.289L228.603 254.32L228.815 255.289ZM408.528 248.734L408.463 247.76L408.528 248.734ZM561.313 233.944L561.469 234.917L561.313 233.944ZM880.69 169.35L880.892 170.32L880.69 169.35ZM1207.97 128.516L1208.18 129.485L1207.97 128.516ZM1407.19 77.3438L1407.28 78.3185L1407.19 77.3438ZM1803.68 -10.6483L1803.32 -11.5891L1803.68 -10.6483ZM1882.1 -24.9512C1881.76 -24.5516 1881.12 -24.52 1880.66 -24.8807C1880.21 -25.2414 1880.11 -25.8577 1880.45 -26.2573L1881.27 -25.6042L1882.1 -24.9512ZM-265.346 366.454L-265.636 365.497C-253.411 363.194 -241.508 362.391 -229.741 361.057C-217.945 359.719 -206.201 357.842 -194.096 353.4L-193.65 354.314L-193.203 355.228C-205.524 359.749 -217.451 361.648 -229.308 362.993C-241.195 364.341 -252.927 365.126 -265.056 367.41L-265.346 366.454ZM-193.65 354.314L-194.096 353.4C-168.148 343.877 -141.402 336.157 -114.607 328.624C-87.801 321.088 -60.952 313.741 -34.7422 304.954L-34.3213 305.877L-33.9003 306.8C-60.1667 315.606 -87.0721 322.968 -113.857 330.498C-140.651 338.031 -167.332 345.733 -193.203 355.228L-193.65 354.314ZM-34.3213 305.877L-34.7422 304.954C48.5562 277.028 139.785 263.968 228.603 254.32L228.815 255.289L229.027 256.257C140.236 265.902 49.1871 278.945 -33.9003 306.8L-34.3213 305.877ZM228.815 255.289L228.603 254.32C287.361 247.937 347.872 245.838 408.463 247.76L408.528 248.734L408.592 249.708C348.095 247.79 287.682 249.885 229.027 256.257L228.815 255.289ZM408.528 248.734L408.463 247.76C434.774 248.594 459.977 245.611 485.104 242.056C510.207 238.505 535.261 234.379 561.157 232.971L561.313 233.944L561.469 234.917C535.689 236.319 510.76 240.425 485.593 243.985C460.45 247.542 435.098 250.549 408.592 249.708L408.528 248.734ZM561.313 233.944L561.157 232.971C616.303 229.973 668.663 216.578 721.002 202.541C773.31 188.513 825.607 173.841 880.488 168.381L880.69 169.35L880.892 170.32C826.211 175.76 774.087 190.38 721.73 204.422C669.404 218.455 616.856 231.907 561.469 234.917L561.313 233.944ZM880.69 169.35L880.488 168.381C963.754 160.097 1044.61 143.263 1126.13 127.908L1126.42 128.865L1126.71 129.822C1045.25 145.166 964.272 162.024 880.892 170.32L880.69 169.35ZM1126.42 128.865L1126.13 127.908C1139.37 125.414 1153.1 126.046 1166.81 126.929C1180.57 127.815 1194.31 128.951 1207.77 127.547L1207.97 128.516L1208.18 129.485C1194.5 130.912 1180.56 129.755 1166.87 128.874C1153.15 127.99 1139.67 127.381 1126.71 129.822L1126.42 128.865ZM1207.97 128.516L1207.77 127.547C1220.14 126.257 1232.19 123.309 1244.25 120.094C1256.29 116.884 1268.35 113.402 1280.62 111.09L1280.91 112.047L1281.21 113.004C1269.03 115.298 1257.07 118.751 1244.98 121.975C1232.91 125.193 1220.72 128.177 1208.18 129.485L1207.97 128.516ZM1280.91 112.047L1280.62 111.09C1301.67 107.126 1322.1 98.4419 1342.93 90.711C1363.7 83.0011 1384.84 76.257 1407.09 76.3691L1407.19 77.3438L1407.28 78.3185C1385.43 78.2083 1364.59 84.8316 1343.83 92.5367C1323.12 100.221 1302.46 108.999 1281.21 113.004L1280.91 112.047ZM1407.19 77.3438L1407.09 76.3691C1424.39 76.4564 1441.15 72.9657 1457.87 68.6344C1474.54 64.3139 1491.23 59.1367 1508.18 55.9442L1508.47 56.9011L1508.76 57.8581C1491.9 61.0344 1475.38 66.1664 1458.58 70.5191C1441.82 74.8608 1424.85 78.4071 1407.28 78.3185L1407.19 77.3438ZM1508.47 56.9011L1508.18 55.9442C1537.43 50.4342 1566.26 43.4704 1595.13 36.497C1623.99 29.5255 1652.89 22.5442 1682.26 17.0129L1682.55 17.9698L1682.84 18.9268C1653.53 24.4471 1624.68 31.4161 1595.81 38.3895C1566.95 45.361 1538.07 52.3371 1508.76 57.8581L1508.47 56.9011ZM1682.55 17.9698L1682.26 17.0129C1723.55 9.23513 1763.13 -0.912486 1803.32 -11.5891L1803.68 -10.6483L1804.05 -9.70751C1763.85 0.970366 1724.21 11.1344 1682.84 18.9268L1682.55 17.9698ZM1803.68 -10.6483L1803.32 -11.5891C1811.68 -13.8105 1819.57 -16.9047 1827.58 -19.8764C1835.57 -22.8403 1843.67 -25.6749 1852.37 -27.3135L1852.66 -26.3565L1852.95 -25.3996C1844.43 -23.7946 1836.46 -21.0117 1828.48 -18.0507C1820.52 -15.0974 1812.52 -11.9592 1804.05 -9.70751L1803.68 -10.6483ZM1852.66 -26.3565L1852.37 -27.3135C1854.05 -27.6306 1863.55 -30.0525 1871.36 -31.0715C1873.32 -31.3283 1875.22 -31.5013 1876.88 -31.5309C1878.53 -31.5602 1880.04 -31.4526 1881.21 -31.0963C1882.37 -30.7413 1883.53 -30.0088 1883.71 -28.6523C1883.86 -27.5003 1883.2 -26.2594 1882.1 -24.9512L1881.27 -25.6042L1880.45 -26.2573C1881.52 -27.5285 1881.72 -28.267 1881.67 -28.6015C1881.66 -28.7315 1881.59 -28.9924 1880.76 -29.2449C1879.93 -29.4961 1878.7 -29.6101 1877.12 -29.5819C1875.56 -29.5542 1873.75 -29.391 1871.82 -29.1396C1864.06 -28.1259 1854.89 -25.765 1852.95 -25.3996L1852.66 -26.3565Z" fill="url(#paint0_linear_1_225)"/>
<mask id="mask0_1_225" style="mask-type:alpha" maskUnits="userSpaceOnUse" x="-267" y="-32" width="2151" height="400">
<path d="M-265.054 367.41C-265.596 367.513 -266.166 367.167 -266.327 366.639C-266.487 366.11 -266.177 365.599 -265.634 365.497L-265.344 366.454L-265.054 367.41ZM-193.648 354.314L-194.094 353.4L-193.648 354.314ZM-34.3193 305.877L-34.7403 304.954L-34.3193 305.877ZM228.817 255.289L228.605 254.32L228.817 255.289ZM408.53 248.734L408.465 247.76L408.53 248.734ZM561.315 233.944L561.471 234.917L561.315 233.944ZM880.692 169.35L880.894 170.32L880.692 169.35ZM1207.98 128.516L1208.18 129.485L1207.98 128.516ZM1407.19 77.3438L1407.28 78.3185L1407.19 77.3438ZM1803.69 -10.6483L1803.32 -11.5891L1803.69 -10.6483ZM1882.1 -24.9512C1881.76 -24.5516 1881.12 -24.52 1880.66 -24.8807C1880.21 -25.2414 1880.11 -25.8577 1880.45 -26.2573L1881.27 -25.6042L1882.1 -24.9512ZM-265.344 366.454L-265.634 365.497C-253.409 363.194 -241.506 362.391 -229.739 361.057C-217.943 359.719 -206.199 357.842 -194.094 353.4L-193.648 354.314L-193.201 355.228C-205.522 359.749 -217.449 361.648 -229.306 362.993C-241.193 364.341 -252.925 365.126 -265.054 367.41L-265.344 366.454ZM-193.648 354.314L-194.094 353.4C-168.146 343.877 -141.4 336.157 -114.605 328.624C-87.799 321.088 -60.9501 313.741 -34.7403 304.954L-34.3193 305.877L-33.8984 306.8C-60.1647 315.606 -87.0702 322.968 -113.855 330.498C-140.649 338.031 -167.33 345.733 -193.201 355.228L-193.648 354.314ZM-34.3193 305.877L-34.7403 304.954C48.5581 277.028 139.786 263.968 228.605 254.32L228.817 255.289L229.029 256.257C140.237 265.902 49.1891 278.945 -33.8984 306.8L-34.3193 305.877ZM228.817 255.289L228.605 254.32C287.363 247.937 347.874 245.838 408.465 247.76L408.53 248.734L408.594 249.708C348.097 247.79 287.684 249.885 229.029 256.257L228.817 255.289ZM408.53 248.734L408.465 247.76C434.776 248.594 459.979 245.611 485.106 242.056C510.208 238.505 535.263 234.379 561.159 232.971L561.315 233.944L561.471 234.917C535.691 236.319 510.762 240.425 485.595 243.985C460.452 247.542 435.099 250.549 408.594 249.708L408.53 248.734ZM561.315 233.944L561.159 232.971C616.305 229.973 668.665 216.578 721.004 202.541C773.312 188.513 825.609 173.841 880.49 168.381L880.692 169.35L880.894 170.32C826.213 175.76 774.089 190.38 721.732 204.422C669.406 218.455 616.858 231.907 561.471 234.917L561.315 233.944ZM880.692 169.35L880.49 168.381C963.756 160.097 1044.61 143.263 1126.13 127.908L1126.42 128.865L1126.71 129.822C1045.25 145.166 964.274 162.024 880.894 170.32L880.692 169.35ZM1126.42 128.865L1126.13 127.908C1139.37 125.414 1153.1 126.046 1166.82 126.929C1180.57 127.815 1194.31 128.951 1207.77 127.547L1207.98 128.516L1208.18 129.485C1194.51 130.912 1180.56 129.755 1166.87 128.874C1153.15 127.99 1139.67 127.381 1126.71 129.822L1126.42 128.865ZM1207.98 128.516L1207.77 127.547C1220.14 126.257 1232.2 123.309 1244.26 120.094C1256.29 116.884 1268.35 113.402 1280.63 111.09L1280.92 112.047L1281.21 113.004C1269.03 115.298 1257.07 118.751 1244.98 121.975C1232.91 125.193 1220.72 128.177 1208.18 129.485L1207.98 128.516ZM1280.92 112.047L1280.63 111.09C1301.67 107.126 1322.1 98.4419 1342.93 90.711C1363.71 83.0011 1384.84 76.257 1407.09 76.3691L1407.19 77.3438L1407.28 78.3185C1385.44 78.2083 1364.59 84.8316 1343.83 92.5367C1323.13 100.221 1302.47 108.999 1281.21 113.004L1280.92 112.047ZM1407.19 77.3438L1407.09 76.3691C1424.39 76.4564 1441.15 72.9657 1457.87 68.6344C1474.54 64.3139 1491.23 59.1367 1508.18 55.9442L1508.47 56.9011L1508.76 57.8581C1491.9 61.0344 1475.38 66.1664 1458.58 70.5191C1441.83 74.8608 1424.85 78.4071 1407.28 78.3185L1407.19 77.3438ZM1508.47 56.9011L1508.18 55.9442C1537.43 50.4342 1566.26 43.4704 1595.13 36.497C1623.99 29.5255 1652.89 22.5442 1682.26 17.0129L1682.55 17.9698L1682.84 18.9268C1653.53 24.4471 1624.68 31.4161 1595.81 38.3895C1566.95 45.361 1538.07 52.3371 1508.76 57.8581L1508.47 56.9011ZM1682.55 17.9698L1682.26 17.0129C1723.55 9.23513 1763.14 -0.912486 1803.32 -11.5891L1803.69 -10.6483L1804.05 -9.70751C1763.85 0.970366 1724.21 11.1344 1682.84 18.9268L1682.55 17.9698ZM1803.69 -10.6483L1803.32 -11.5891C1811.69 -13.8105 1819.57 -16.9047 1827.58 -19.8764C1835.57 -22.8403 1843.67 -25.6749 1852.37 -27.3135L1852.66 -26.3565L1852.95 -25.3996C1844.43 -23.7946 1836.46 -21.0117 1828.48 -18.0507C1820.52 -15.0974 1812.52 -11.9592 1804.05 -9.70751L1803.69 -10.6483ZM1852.66 -26.3565L1852.37 -27.3135C1854.06 -27.6306 1863.55 -30.0525 1871.36 -31.0715C1873.33 -31.3283 1875.22 -31.5013 1876.88 -31.5309C1878.53 -31.5602 1880.04 -31.4526 1881.21 -31.0963C1882.38 -30.7413 1883.54 -30.0088 1883.71 -28.6523C1883.86 -27.5003 1883.2 -26.2594 1882.1 -24.9512L1881.27 -25.6042L1880.45 -26.2573C1881.52 -27.5285 1881.72 -28.267 1881.68 -28.6015C1881.66 -28.7315 1881.59 -28.9924 1880.76 -29.2449C1879.94 -29.4961 1878.7 -29.6101 1877.12 -29.5819C1875.56 -29.5542 1873.75 -29.391 1871.83 -29.1396C1864.06 -28.1259 1854.89 -25.765 1852.95 -25.3996L1852.66 -26.3565Z" fill="url(#paint1_linear_1_225)"/>
</mask>
<g mask="url(#mask0_1_225)">
<g filter="url(#filter0_f_1_225)">
<rect x="1638.86" y="-75.0332" width="95.9805" height="169.04" transform="rotate(-10.5292 1638.86 -75.0332)" fill="white"/>
</g>
</g>
<path d="M-174.602 335.998C-175.148 336.081 -175.531 336.592 -175.458 337.139C-175.384 337.686 -174.882 338.063 -174.336 337.98L-174.469 336.989L-174.602 335.998ZM-102.872 324.156L-102.97 325.155L-102.872 324.156ZM66.4999 324.878L66.4403 325.88L66.4999 324.878ZM332.158 285.999L332.402 286.967L332.158 285.999ZM500.201 221.296L500.635 222.191L500.201 221.296ZM647.474 178.847L647.155 177.903L647.474 178.847ZM971.439 136.01L971.182 135.046L971.439 136.01ZM1291.29 57.5548L1291.04 56.5886L1291.29 57.5548ZM1498.57 45.6632L1498.17 44.7513L1498.57 45.6632ZM1904.5 3.11134L1904.53 4.11269L1904.5 3.11134ZM1983.48 -9.08261C1983.06 -9.4278 1982.43 -9.35677 1982.08 -8.92393C1981.73 -8.49113 1981.79 -7.86044 1982.21 -7.51525L1982.85 -8.29895L1983.48 -9.08261ZM-174.469 336.989L-174.336 337.98C-161.995 336.106 -150.654 332.313 -139.243 329.316C-127.791 326.309 -116.155 324.065 -102.97 325.155L-102.872 324.156L-102.774 323.157C-116.29 322.04 -128.181 324.348 -139.718 327.377C-151.295 330.417 -162.401 334.145 -174.602 335.998L-174.469 336.989ZM-102.872 324.156L-102.97 325.155C-74.5881 327.501 -46.3396 327.061 -18.1478 326.348C10.0591 325.634 38.1987 324.645 66.4403 325.88L66.4999 324.878L66.5596 323.877C38.2328 322.639 10.01 323.63 -18.1653 324.343C-46.3556 325.057 -74.5091 325.493 -102.774 323.157L-102.872 324.156ZM66.4999 324.878L66.4403 325.88C156.281 329.806 246.279 310.213 332.402 286.967L332.158 285.999L331.914 285.031C245.829 308.267 156.079 327.789 66.5596 323.877L66.4999 324.878ZM332.158 285.999L332.402 286.967C389.392 271.584 445.94 249.643 500.635 222.191L500.201 221.296L499.767 220.4C445.185 247.796 388.764 269.686 331.914 285.031L332.158 285.999ZM500.201 221.296L500.635 222.191C524.348 210.289 548.872 204.034 573.624 198.584C598.345 193.14 623.335 188.492 647.794 179.792L647.474 178.847L647.155 177.903C622.851 186.549 598.037 191.163 573.228 196.626C548.449 202.082 523.718 208.379 499.767 220.4L500.201 221.296ZM647.474 178.847L647.794 179.792C699.783 161.298 754.195 158.098 808.939 155.781C863.636 153.466 918.683 152.032 971.695 136.974L971.439 136.01L971.182 135.046C918.444 150.026 863.66 151.46 808.888 153.778C754.163 156.095 699.467 159.295 647.155 177.903L647.474 178.847ZM971.439 136.01L971.695 136.974C1052.04 114.152 1134.27 103.965 1216.42 91.4869L1216.29 90.4958L1216.16 89.5047C1134.08 101.971 1051.68 112.179 971.182 135.046L971.439 136.01ZM1216.29 90.4958L1216.42 91.4869C1229.83 89.451 1242.16 82.9392 1254.32 76.1181C1266.54 69.2665 1278.56 62.1115 1291.54 58.5209L1291.29 57.5548L1291.04 56.5886C1277.77 60.26 1265.49 67.5706 1253.37 74.3715C1241.19 81.203 1229.15 87.5307 1216.16 89.5047L1216.29 90.4958ZM1291.29 57.5548L1291.54 58.5209C1303.48 55.22 1315.92 54.2971 1328.52 53.7375C1341.09 53.1794 1353.85 52.9832 1366.24 51.1016L1366.1 50.1105L1365.97 49.1194C1353.72 50.9803 1341.12 51.1729 1328.47 51.7347C1315.85 52.2949 1303.21 53.2228 1291.04 56.5886L1291.29 57.5548ZM1366.1 50.1105L1366.24 51.1016C1387.4 47.8876 1410.25 51.3439 1433.09 53.3463C1455.84 55.3407 1478.53 55.8788 1498.97 46.5751L1498.57 45.6632L1498.17 44.7513C1478.26 53.818 1456.03 53.3422 1433.29 51.3491C1410.65 49.3638 1387.44 45.8586 1365.97 49.1194L1366.1 50.1105ZM1498.57 45.6632L1498.97 46.5751C1514.75 39.392 1531.76 37.2822 1549.16 36.3362C1566.5 35.3935 1584.32 35.6094 1601.42 33.0124L1601.29 32.0213L1601.16 31.0302C1584.18 33.6083 1566.61 33.3816 1549.08 34.3344C1531.62 35.2838 1514.31 37.4074 1498.17 44.7513L1498.57 45.6632ZM1601.29 32.0213L1601.42 33.0124C1630.89 28.5371 1660.66 26.2161 1690.49 23.8901C1720.31 21.565 1750.18 19.2349 1779.78 14.7385L1779.65 13.7474L1779.52 12.7564C1750 17.24 1720.2 19.5653 1690.37 21.8913C1660.55 24.2164 1630.71 26.5422 1601.16 31.0302L1601.29 32.0213ZM1779.65 13.7474L1779.78 14.7385C1821.38 8.42119 1862.54 6.02984 1904.53 4.11269L1904.5 3.11134L1904.47 2.10998C1862.48 4.02741 1821.22 6.42208 1779.52 12.7564L1779.65 13.7474ZM1904.5 3.11134L1904.53 4.11269C1913.24 3.71491 1921.93 4.6985 1930.71 5.46626C1939.46 6.23103 1948.28 6.77793 1957.09 5.44076L1956.95 4.44968L1956.82 3.4586C1948.27 4.75691 1939.66 4.23302 1930.92 3.46897C1922.21 2.7079 1913.35 1.70452 1904.47 2.10998L1904.5 3.11134ZM1956.95 4.44968L1957.09 5.44076C1958.73 5.19151 1968.67 4.59077 1976.33 2.77813C1978.27 2.31963 1980.1 1.77565 1981.66 1.12533C1983.21 0.482214 1984.57 -0.299887 1985.49 -1.27794C1986.44 -2.29857 1986.93 -3.5731 1986.56 -5.02449C1986.22 -6.38154 1985.16 -7.72198 1983.48 -9.08261L1982.85 -8.29895L1982.21 -7.51525C1983.77 -6.25241 1984.44 -5.24417 1984.63 -4.49746C1984.79 -3.84514 1984.63 -3.26086 1984.05 -2.63773C1983.42 -1.97204 1982.37 -1.3254 1980.93 -0.724994C1979.5 -0.131829 1977.78 0.382576 1975.9 0.827111C1968.3 2.6266 1958.83 3.15322 1956.82 3.4586L1956.95 4.44968Z" fill="url(#paint2_linear_1_225)"/>
<defs>
<filter id="filter0_f_1_225" x="1609.26" y="-122.174" width="184.458" height="242.937" filterUnits="userSpaceOnUse" color-interpolation-filters="sRGB">
<feFlood flood-opacity="0" result="BackgroundImageFix"/>
<feBlend mode="normal" in="SourceGraphic" in2="BackgroundImageFix" result="shape"/>
<feGaussianBlur stdDeviation="14.8009" result="effect1_foregroundBlur_1_225"/>
</filter>
<linearGradient id="paint0_linear_1_225" x1="-375.454" y1="375.024" x2="1750.93" y2="99.538" gradientUnits="userSpaceOnUse">
<stop stop-color="#E4E314" stop-opacity="0"/>
<stop offset="0.5" stop-color="#E4E314"/>
<stop offset="1" stop-color="#E4E314" stop-opacity="0"/>
</linearGradient>
<linearGradient id="paint1_linear_1_225" x1="-375.452" y1="375.024" x2="1750.94" y2="99.538" gradientUnits="userSpaceOnUse">
<stop stop-color="#7CB4D3" stop-opacity="0"/>
<stop offset="0.5" stop-color="#7CB4D3"/>
<stop offset="1" stop-color="#7CB4D3" stop-opacity="0"/>
</linearGradient>
<linearGradient id="paint2_linear_1_225" x1="-279.606" y1="370.426" x2="1795.52" y2="-156.42" gradientUnits="userSpaceOnUse">
<stop stop-color="#E4E314" stop-opacity="0"/>
<stop offset="0.5" stop-color="#E4E314"/>
<stop offset="1" stop-color="#E4E314" stop-opacity="0"/>
</linearGradient>
</defs>
</svg>
